<?xml version="1.0" encoding="utf-8"?>
<svg id="cleanup_2_-_compound_path" data-name="cleanup 2 - compound path" xmlns="http://www.w3.org/2000/svg" viewBox="0 0 168 128"><title>404</title><circle cx="81.42" cy="62.97" r="31.39" style="fill:none;stroke:#fff;stroke-miterlimit:10;stroke-width:2px"/><circle cx="116.08" cy="87.87" r="3.28" style="fill:none;stroke:#fff;stroke-miterlimit:10;stroke-width:2px"/><circle cx="53.16" cy="38.02" r="0.82" style="fill:none;stroke:#fff;stroke-miterlimit:10;stroke-width:2px"/><path d="M112.77,64.38c5.28,4.08,8.64,8.43,7.65,11.26-2.18,6.17-21.2,5.1-42.5-2.4S41.12,54.65,43.29,48.48c1-2.86,6-4.18,12.78-4" style="fill:none;stroke:#fff;stroke-miterlimit:10;stroke-width:2px"/><path d="M30.62,95.4v-18H.5C11.21,61.29,21.39,46,31.57,30.6l1.58,1L3.91,75.79H30.62V54.44c1.08,0,1.8,0,1.8,0V75.79h9.42v1.66H32.42V95.39Z" style="fill:#fff"/><path d="M156.27,95.4v-18H126.16C136.87,61.29,147.05,46,157.23,30.6l1.58,1-29.24,44.2h26.7V54.44c1.08,0,1.81,0,1.81,0V75.79h9.42v1.66h-9.42V95.39Z" style="fill:#fff"/></svg>